<?xml version="1.0" encoding="UTF-8" standalone="no"?>
<!-- Created with Inkscape (http://www.inkscape.org/) -->

<svg
   xmlns:dc="http://purl.org/dc/elements/1.1/"
   xmlns:cc="http://creativecommons.org/ns#"
   xmlns:rdf="http://www.w3.org/1999/02/22-rdf-syntax-ns#"
   xmlns:svg="http://www.w3.org/2000/svg"
   xmlns="http://www.w3.org/2000/svg"
   xmlns:sodipodi="http://sodipodi.sourceforge.net/DTD/sodipodi-0.dtd"
   xmlns:inkscape="http://www.inkscape.org/namespaces/inkscape"
   width="1500px"
   height="1000px"
   viewBox="0 0 744.09448819 1052.3622047"
   id="svg4712"
   version="1.1"
   inkscape:version="0.91 r13725"
   sodipodi:docname="harekaze-logo-anime.svg">
  <defs
     id="defs4714" />
  <sodipodi:namedview
     id="base"
     pagecolor="#ffffff"
     bordercolor="#666666"
     borderopacity="1.0"
     inkscape:pageopacity="0.0"
     inkscape:pageshadow="2"
     inkscape:zoom="0.49497475"
     inkscape:cx="929.61552"
     inkscape:cy="961.98999"
     inkscape:document-units="px"
     inkscape:current-layer="layer1"
     showgrid="false"
     inkscape:window-width="1920"
     inkscape:window-height="1057"
     inkscape:window-x="1592"
     inkscape:window-y="-8"
     inkscape:window-maximized="1" />
  <metadata
     id="metadata4717">
    <rdf:RDF>
      <cc:Work
         rdf:about="">
        <dc:format>image/svg+xml</dc:format>
        <dc:type
           rdf:resource="http://purl.org/dc/dcmitype/StillImage" />
        <dc:title />
      </cc:Work>
    </rdf:RDF>
  </metadata>
  <g
     inkscape:label="Layer 1"
     inkscape:groupmode="layer"
     id="layer1">
    <g
       id="logo">
      <path
         sodipodi:nodetypes="ccccccccccccccssscsssscccccccccccccscssc"
         inkscape:connector-curvature="0"
         id="path5642"
         d="m -293.01646,462.88133 14.88245,0.81814 15.1901,0.59498 3.66849,-3.64049 0.0304,-7.53005 -116.2159,-105.30516 -7.64343,-0.0198 -3.62371,3.78212 0.0355,7.57328 34.77579,153.05771 3.78212,3.7029 7.68303,0.0594 3.52121,-3.86636 15.43433,-29.64993 c 30.45393,43.69274 71.54959,84.41072 115.00807,110.78605 41.85056,25.39946 85.92489,37.27018 123.133025,37.3348 24.16407,0.042 32.44423,0.2399 45.95072,-2.29367 7.77209,-1.45791 17.87439,-4.06504 31.73091,-8.73792 12.11286,-4.10849 21.91013,-8.92398 31.6308,-14.67368 13.20622,-7.81138 24.97975,-17.68832 35.93182,-28.13882 38.239995,-36.48879 63.864685,-87.04151 76.033025,-143.71773 4.26016,-19.84247 6.04394,-38.99931 7.09547,-58.62806 1.18659,-22.14997 1.19577,-44.90089 -1.83384,-69.91609 l 34.6084,13.92335 3.72449,-1.12015 1.21916,-2.49376 -74.94751,-142.57457 -2.396,-1.01978 -3.27232,1.1392 -1.23256,2.5043 -18.965165,150.7603 1.31618,3.52848 2.54835,1.06415 3.38845,-1.26018 21.692215,-21.22367 c -3.33348,29.98068 -11.968535,63.42781 -23.943025,91.20777 -27.00611,62.65225 -69.90832,111.6134 -126.70652,129.95947 -17.94641,6.1674 -31.53896,10.45035 -49.28875,12.19137 -45.806035,4.49294 -92.561605,-7.64818 -138.270185,-32.79269 -22.20879,-12.21718 -44.41245,-26.77806 -65.67561,-45.38519 z"
         style="display:inline;fill:#ffffff;fill-opacity:1;fill-rule:evenodd;stroke:none;stroke-width:1px;stroke-linecap:butt;stroke-linejoin:miter;stroke-opacity:1" />
      <path
         sodipodi:nodetypes="cccccsscasssscccccssscsc"
         inkscape:connector-curvature="0"
         id="path5614-9"
         d="m -314.9417,453.83421 47.16753,2.73264 -112.19615,-101.34483 34.69249,152.98753 21.62836,-41.82604 c 19.65106,30.16521 42.42405,55.50428 65.76317,76.96631 50.27601,46.23249 106.06256,72.74406 159.231215,78.57039 51.49794,5.64325 56.4425,-3.9853 89.53611,-10.34919 17.99261,-5.79209 36.32104,-16.44249 51.34049,-29.16165 23.85821,-20.20423 43.47846,-42.59677 59.123845,-72.80933 14.15074,-27.32629 23.39704,-58.84286 30.03407,-90.56217 6.00984,-28.72175 5.89069,-51.83913 5.73885,-81.8325 -0.0477,-9.44954 -1.2084,-19.24646 -1.82714,-29.41821 -0.22473,-3.69408 -1.4021,-7.23574 -1.14284,-11.09043 L 178.13741,314.60982 104.12344,174.84303 85.091255,325.63835 119.30851,292.728 c -1.33903,14.15613 -1.9549,31.40201 -5.70486,45.37683 -10.57823,39.42134 -20.322255,76.95873 -47.953445,115.86667 -12.18628,17.15969 -27.6756,33.63548 -49.22328,52.55802 -13.10458,11.50807 -33.38427,20.00641 -53.48967,30.35329 -83.817965,28.84474 -161.148375,5.54157 -234.825505,-46.54659 -14.60586,-10.32603 -28.84778,-23.10767 -43.05345,-36.50201 z"
         style="display:inline;fill:#3651a2;fill-opacity:1;fill-rule:evenodd;stroke:none;stroke-width:1px;stroke-linecap:butt;stroke-linejoin:miter;stroke-opacity:1" />
      <path
         inkscape:connector-curvature="0"
         id="path5715"
         d="m -134.20706,173.17769 c -22.74124,0.74284 -43.17465,10.72139 -58.03018,22.82755 -14.45994,11.78375 -25.03373,25.90192 -32.17602,43.93707 -5.72614,14.45908 -7.8341,32.30547 -6.81496,52.90302 -4.14524,2.2995 -9.05283,4.4047 -12.85912,7.16644 -16.81724,12.20222 -30.47713,26.04247 -32.67197,56.46988 l 0.0535,175.42957 c 7.11691,6.79625 13.7548,9.52173 21.28278,10.33423 5.47767,0.59121 11.95368,0.77569 16.85252,-2.18373 2.58728,-1.56307 4.7946,-4.3857 6.27872,-7.74445 l 0,-7.93905 c 22.23009,14.44873 38.12713,30.70523 49.31458,48.13846 -1.36282,5.33221 -4.53451,7.42112 -8.08028,8.88504 -4.70442,1.94231 -10.23757,2.31615 -14.74283,3.12858 -3.69388,-5.61597 -8.11441,-9.87389 -13.77789,-10.4174 l -8.06508,0.11201 c -6.17019,1.46379 -12.7338,1.89823 -25.27246,11.57899 -2.6875,2.07492 -4.87189,4.60626 -6.87576,8.75175 l 0.16805,7.81305 4.96307,5.77213 c 18.08686,7.90727 56.03692,-2.54803 74.77401,1.52424 11.01898,2.39485 11.70993,1.91388 15.06601,4.33695 l -6.31687,0.0199 -4.0549,4.19691 0.0559,7.30899 c 13.36811,12.23971 25.71264,18.54381 36.96863,18.53317 l 9.30675,0.11873 c 7.09885,-1.02856 13.00392,-0.32534 25.4524,-7.60078 4.059205,-2.37239 9.290965,-3.92033 15.174685,-7.7324 1.68571,-1.09216 2.68735,-2.43852 4.27786,-4.08883 l 0.042,-6.20283 c 49.95377,-10.87451 97.64515,-38.3389 149.94095,-32.03742 4.33192,-6.11398 7.66807,-14.48154 17.42546,-8.31685 l 8.09103,-31.08333 6.27285,6.21684 14.903125,-4.08352 -0.28518,-192.72694 c -2.41795,-12.7503 -0.5728,-31.53683 -30.930065,-55.23658 -3.78593,-2.95563 -9.69717,-5.79985 -14.71602,-8.612 0.69912,-13.03071 1.15435,-25.22232 -1.77489,-36.79666 -8.71244,-34.42608 -28.1009,-62.05647 -71.70161,-78.39542 -7.07734,-2.65216 -14.86456,-3.96186 -23.52065,-4.3053 l -103.998145,0 z m 6.29693,50.21607 92.344705,0 c 44.97808,5.42002 53.82222,41.35629 51.93011,63.58395 l -197.006695,0 c -0.74371,-34.83788 13.81474,-58.28077 52.73188,-63.58395 z m 45.781435,184.8296 c 16.65321,0.0943 34.75585,15.04472 34.63369,34.18784 0.1841,11.99817 -7.84572,24.04446 -14.64605,28.75986 -0.37795,1.16533 -0.62886,1.56781 -0.85942,1.84824 l 0,57.63176 -38.303765,0 0.0143,-57.93979 c -0.34899,-0.45318 -0.7222,-1.00353 -1.17614,-1.87625 -11.59594,-10.32811 -14.44862,-19.28951 -14.43399,-28.19643 -0.0559,-19.35967 16.6264,-34.48652 34.771765,-34.41523 z"
         style="display:inline;fill:#ffffff;fill-opacity:1;fill-rule:evenodd;stroke:none;stroke-width:1px;stroke-linecap:butt;stroke-linejoin:miter;stroke-opacity:1" />
      <path
         inkscape:connector-curvature="0"
         id="lock"
         d="m -126.43762,181.10807 c -8.58383,0.72957 -23.25999,2.23042 -30.35282,5.38709 -27.81672,12.37988 -42.91858,26.32696 -51.72063,41.41645 -12.72864,21.82091 -15.22014,42.81175 -14.38409,68.94722 -0.71117,1.46848 -1.49975,2.79736 -2.73267,3.32657 -23.18586,10.0113 -39.96611,26.91811 -42.95327,58.81098 l 0.0523,169.02232 c 2.35228,1.08435 4.65739,2.58244 7.03376,3.61528 6.48604,2.819 13.4461,4.06634 19.22042,-0.0135 3.04394,-3.34351 1.50476,-7.55057 -1.42878,-11.95593 -4.09276,-6.14614 -11.05827,-12.51958 -13.48381,-16.0652 -0.53753,-1.21098 -0.0969,-1.72692 1.37214,-1.51221 9.34029,3.66106 16.97983,7.87333 24.5937,12.57286 18.26867,11.27577 34.8664,27.29606 47.6131,41.53293 5.65947,6.32095 8.24001,11.17746 9.6586,16.52895 -1.94121,13.81258 -13.88012,21.04734 -38.51554,19.92943 -1.93362,-4.80212 -2.35615,-10.44961 -14.00185,-10.19336 -17.9918,6.56943 -23.42788,11.40718 -25.09137,16.24217 4.16975,4.89023 15.17153,4.11722 25.76196,3.62033 35.25595,-1.6542 77.80332,-6.37401 77.26938,23.59541 l -1.74464,0.10614 -15.76412,-3.66093 c 7.03089,4.97056 13.182,8.9784 18.9546,11.25527 4.93755,1.94748 9.55307,2.53829 14.70684,2.3848 14.34438,-0.24117 26.74496,-8.71328 39.694685,-14.76806 l -17.119765,-4.45877 2.13578,-1.38617 c 22.379485,-4.80354 43.849535,-11.78589 65.461085,-18.80818 27.74461,-9.01516 55.8805,-18.26017 86.31368,-19.62951 8.86098,-0.3987 17.77172,0.45012 27.10399,1.44807 l 5.22775,-2.69285 c 2.05563,-33.2711 9.67896,-45.78937 24.870715,-30.09872 l 3.16839,-0.47523 -0.4753,-190.57092 c -1.62907,-11.16939 -4.889665,-25.49008 -18.823555,-38.92635 -5.62806,-5.42705 -14.10249,-12.26796 -23.78948,-15.48861 l -2.81181,-3.24759 c 0.0555,-16.32973 0.72334,-30.0724 -2.79819,-42.53716 -10.77424,-38.13731 -36.60043,-58.4534 -64.9182,-68.54537 -10.15182,-3.61789 -16.56704,-3.94739 -28.61534,-4.55902 l -88.687675,-0.1487 z m -3.36052,33.43651 95.296875,0.098 c 29.82648,2.46691 50.11694,20.1497 57.61259,46.81306 1.29127,4.59322 1.58807,9.22227 2.14739,14.33316 l 0.1679,16.2982 c -1.00523,2.10711 -2.26167,3.60448 -4.00444,3.92052 l -206.891765,-0.028 c -2.05606,-0.46964 -3.48856,-1.77088 -4.20058,-4.03255 l 0.0579,-16.15705 c 0.78916,-8.98525 2.05291,-16.73222 5.32611,-24.18908 8.58842,-19.56618 25.1364,-34.47819 54.488,-37.05626 z m 47.606495,184.88084 c 22.55327,-0.0672 43.51088,17.98276 43.54572,43.37782 0.16962,10.31325 -2.63804,20.74647 -15.43005,33.04445 l -0.084,59.42398 c -0.70213,3.47195 -2.33622,3.68256 -3.90651,4.11657 l -48.138435,0.084 c -1.92759,-0.42945 -3.41085,-1.52535 -3.85045,-4.18656 l -0.12245,-59.40999 c -11.76226,-9.28168 -14.97955,-20.77892 -15.40567,-32.99962 0.14954,-24.37163 19.73702,-43.49138 43.391865,-43.45065 z"
         style="display:inline;fill:#3651a2;fill-opacity:1;fill-rule:evenodd;stroke:none;stroke-width:1px;stroke-linecap:butt;stroke-linejoin:miter;stroke-opacity:1" />
      <path
         id="path5563"
         d="M -80.808335,85.25826 A 325.69757,325.69757 0 0 0 -406.50583,410.95603 325.69757,325.69757 0 0 0 -80.808335,736.65354 325.69757,325.69757 0 0 0 244.88917,410.95603 325.69757,325.69757 0 0 0 -80.808335,85.25826 Z m -1.35566,31.44151 A 295.12114,295.12114 0 0 1 212.95731,411.82079 295.12114,295.12114 0 0 1 -82.163995,706.94184 295.12114,295.12114 0 0 1 -377.28502,411.82079 295.12114,295.12114 0 0 1 -82.163995,116.69977 Z"
         style="display:inline;opacity:1;fill:#ffffff;fill-opacity:1;stroke:none;stroke-width:220;stroke-linecap:butt;stroke-linejoin:bevel;stroke-miterlimit:4;stroke-dasharray:none;stroke-opacity:1"
         inkscape:connector-curvature="0" />
      <path
         id="path5558"
         d="M -80.712285,92.57312 A 317.83127,317.83127 0 0 0 -398.54352,410.40436 317.83127,317.83127 0 0 0 -80.712285,728.23564 317.83127,317.83127 0 0 0 237.11896,410.40436 317.83127,317.83127 0 0 0 -80.712285,92.57312 Z m -2.32487,15.67371 A 303.11274,303.11274 0 0 1 220.07559,411.35957 303.11274,303.11274 0 0 1 -83.037155,714.47234 303.11274,303.11274 0 0 1 -386.14989,411.35957 303.11274,303.11274 0 0 1 -83.037155,108.24683 Z"
         style="display:inline;opacity:1;fill:#3651a2;fill-opacity:1;stroke:none;stroke-width:220;stroke-linecap:butt;stroke-linejoin:bevel;stroke-miterlimit:4;stroke-dasharray:none;stroke-opacity:1"
         inkscape:connector-curvature="0" />
      <path
         inkscape:connector-curvature="0"
         id="path5808"
         d="m -86.206205,644.92457 -1.84013,1.83369 -1.84013,1.83396 0,1.75669 0,1.75695 -0.94093,-0.14058 c -1.59882,-0.2389 -11.565865,-0.17075 -12.657975,0.0865 -0.7778,0.18322 -1.01653,0.18322 -1.2372,0 -0.38812,-0.32226 -10.79541,-0.32501 -11.67085,-0.003 -0.43048,0.1583 -2.00517,0.22403 -5.36693,0.22403 l -4.75755,0 -0.47159,0.4517 -0.47157,0.4517 -0.81015,-0.35816 c -2.06071,-0.91153 -2.84967,-0.99102 -9.78172,-0.99246 l -6.49688,-0.001 0,-1.0787 0,-1.07843 -1.83984,-1.83396 -1.84013,-1.83369 -7.00038,0 -7.0001,0 -0.42286,0.44975 -0.42258,0.45001 -0.46961,-0.45001 -0.46991,-0.44975 -6.97685,0 -6.97686,0 -1.84013,1.83369 -1.84013,1.83396 0,16.39901 0,16.39929 1.83396,1.84008 1.83398,1.8402 6.8934,0 6.89341,0 0.50267,-0.4817 0.50266,-0.4817 0.50294,0.4817 0.50268,0.4817 6.98889,0 c 3.98159,0 7.06189,-0.071 7.15889,-0.1641 0.10372,-0.1 0.41539,-0.037 0.79754,0.1599 l 0,0 c 0.56601,0.2921 1.21739,0.3255 6.66575,0.343 3.85343,0.012 6.07809,-0.045 6.14877,-0.1599 0.0718,-0.1162 3.86925,-0.1792 10.80583,-0.1792 l 10.69491,0 1.73904,-1.7326 1.73903,-1.7326 1.10335,1.02158 c 1.15158,1.06612 2.56737,1.88402 3.93788,2.27442 0.44359,0.1264 0.88313,0.2967 0.97677,0.3786 0.22382,0.1959 14.313935,0.1943 14.535065,0 0.33669,-0.2983 2.25652,-0.613 2.46545,-0.404 0.13857,0.1385 3.95152,0.1963 12.96436,0.1963 8.31873,0 12.80648,0.062 12.87864,0.1792 0.15132,0.2448 12.21514,0.2448 12.36646,0 0.0725,-0.1173 5.47861,-0.1792 15.63395,-0.1792 13.97953,0 15.55461,-0.028 15.84005,-0.2868 0.29067,-0.263 0.39573,-0.2623 1.26856,0.01 0.52347,0.163 1.09181,0.373 1.26297,0.4663 0.38812,0.2115 14.33528004,0.2295 14.57316004,0.019 0.0936,-0.083 0.65416996,-0.2539 1.24560996,-0.3798 2.93354,-0.6244 3.25634,-0.7965 5.33191,-2.83954 l 1.92666,-1.89642 0,-2.98436 c 0,-2.75694 0.0273,-3.00928 0.35845,-3.30893 0.34497,-0.31217 0.35845,-0.55229 0.35845,-6.36246 0,-8.14143 0.0634,-7.96885 -4.6139,-12.57425 -4.04907996,-3.98687 -4.83889996,-4.25961 -12.32278,-4.26104 -4.83776,-10e-4 -6.47326,0.13773 -8.09673,0.68581 -0.90797,0.30655 -1.08027,0.31892 -1.32653,0.096 -0.23942,-0.21667 -2.14185,-0.25596 -12.35246,-0.25596 -10.71403,0 -12.1043,0.0315 -12.38019,0.28117 -0.28316,0.25626 -0.41789,0.24823 -1.51444,-0.0905 -2.08465,-0.64387 -4.18593,-0.78172 -10.18916,-0.66845 -3.06766,0.0579 -5.98105,0.18404 -6.47392,0.28059 -0.49287,0.0965 -2.77125,0.18036 -5.06308,0.18624 l -4.16696,0.0109 0,-1.83397 0,-1.83396 -1.83368,-1.84013 -1.83396,-1.84013 -6.81052,0 -6.8108,0 z"
         style="display:inline;fill:#fffffa;fill-opacity:1;stroke:none" />
      <circle
         r="309.37582"
         cy="407.56107"
         cx="-84.156952"
         id="path4792-7"
         style="display:inline;opacity:1;fill:none;fill-opacity:1;stroke:#000000;stroke-width:31.52910042;stroke-linecap:butt;stroke-linejoin:bevel;stroke-miterlimit:4;stroke-dasharray:none;stroke-opacity:0" />
      <g
         id="sightingCircle">
        <circle
           style="display:inline;opacity:1;fill:#ffffff;fill-opacity:1;stroke:none;stroke-width:60.96438599;stroke-linecap:butt;stroke-linejoin:bevel;stroke-miterlimit:4;stroke-dasharray:none;stroke-opacity:1"
           id="path4790"
           cx="-81.302391"
           cy="68.606094"
           r="67.792183" />
        <circle
           style="display:inline;opacity:1;fill:#3651a2;fill-opacity:1;stroke:none;stroke-width:40;stroke-linecap:butt;stroke-linejoin:bevel;stroke-miterlimit:4;stroke-dasharray:none;stroke-opacity:1"
           id="path4770"
           cx="-81.570244"
           cy="68.701279"
           r="59.404957" />
      </g>
      <path
         inkscape:connector-curvature="0"
         id="key"
         d="m -81.39052,19.92996 a 18.202446,18.202446 0 0 0 -18.20244,18.20246 18.202446,18.202446 0 0 0 14.2259,17.73925 l 0,61.32488 7.63298,0 0,-0.0179 25.67778,0 0,-6.39773 -17.61522,0 0,-5.72089 -8.06256,0 0,-8.97073 15.59699,0 0,-3.54387 -8.96822,0 0,-5.38597 8.96822,0 0,-3.05157 -15.59699,0 0,-28.14658 a 18.202446,18.202446 0 0 0 14.546,-17.82887 18.202446,18.202446 0 0 0 -18.20244,-18.20246 z m -0.0426,8.28912 a 9.9693399,9.9693399 0 0 1 9.96933,9.96934 9.9693399,9.9693399 0 0 1 -9.96933,9.96933 9.9693399,9.9693399 0 0 1 -9.96933,-9.96933 9.9693399,9.9693399 0 0 1 9.96933,-9.96934 z"
         style="display:inline;opacity:1;fill:#ffffff;fill-opacity:1;stroke:none;stroke-width:1;stroke-linejoin:miter;stroke-miterlimit:4;stroke-dasharray:none;stroke-opacity:1" />
      <g
         id="sighting">
        <path
           style="display:inline;fill:none;fill-opacity:1;fill-rule:evenodd;stroke:#fffcff;stroke-width:1.48862946;stroke-linecap:butt;stroke-linejoin:miter;stroke-miterlimit:4;stroke-dasharray:none;stroke-opacity:1"
           d="m -124.11377,25.566893 85.854326,86.512197"
           id="path4776"
           inkscape:connector-curvature="0" />
        <path
           style="display:inline;fill:none;fill-rule:evenodd;stroke:#ffffff;stroke-width:1.43379271;stroke-linecap:butt;stroke-linejoin:miter;stroke-miterlimit:4;stroke-dasharray:none;stroke-opacity:1"
           d="m -80.877068,8.586381 -0.34688,119.760369"
           id="path4778"
           inkscape:connector-curvature="0"
           sodipodi:nodetypes="cc" />
        <path
           style="display:inline;fill:none;fill-opacity:1;fill-rule:evenodd;stroke:#ffffff;stroke-width:1.4464637;stroke-linecap:butt;stroke-linejoin:miter;stroke-miterlimit:4;stroke-dasharray:none;stroke-opacity:1"
           d="m -141.34352,69.38698 121.886494,0"
           id="path4782"
           inkscape:connector-curvature="0" />
        <path
           style="display:inline;fill:none;fill-rule:evenodd;stroke:#ffffff;stroke-width:1.45776057;stroke-linecap:butt;stroke-linejoin:miter;stroke-miterlimit:4;stroke-dasharray:none;stroke-opacity:1"
           d="M -123.91823,112.76092 -38.877859,26.754184"
           id="path4784"
           inkscape:connector-curvature="0" />
        <circle
           style="display:inline;opacity:1;fill:none;fill-opacity:1;stroke:#ffffff;stroke-width:1.4634279;stroke-linecap:butt;stroke-linejoin:bevel;stroke-miterlimit:4;stroke-dasharray:none;stroke-opacity:1"
           id="path4788"
           cx="-81.570305"
           cy="67.297546"
           r="30.558931" />
      </g>
      <path
         id="path5588"
         d="m -159.59971,144.33836 a 60.672259,60.672259 0 0 0 -60.6724,60.6724 60.672259,60.672259 0 0 0 60.6724,60.67211 60.672259,60.672259 0 0 0 60.672105,-60.67211 60.672259,60.672259 0 0 0 -60.672105,-60.6724 z m 0.13918,45.39355 c 3.86182,0.59658 6.94767,2.35717 9.97997,4.19804 2.82414,3.40633 4.9074,7.18289 5.62372,11.64313 -0.91698,3.24747 -2.02787,6.49504 -4.19776,9.74251 -3.50159,2.55686 -7.14738,4.78981 -11.48519,5.46521 -3.8242,-1.08493 -7.55486,-2.82296 -11.1679,-5.38597 -1.81482,-3.27388 -3.27807,-6.54787 -4.03954,-9.82175 0.60608,-4.33354 2.32577,-8.04822 4.83149,-11.3264 2.99138,-2.09738 6.40864,-3.68362 10.45521,-4.51477 z"
         style="display:inline;opacity:1;fill:#ffffff;fill-opacity:1;stroke:none;stroke-width:220;stroke-linecap:butt;stroke-linejoin:bevel;stroke-miterlimit:4;stroke-dasharray:none;stroke-opacity:1"
         inkscape:connector-curvature="0" />
      <path
         inkscape:connector-curvature="0"
         id="path5595"
         d="m -167.18308,265.15637 52.94414,-19.901 75.647775,203.79892 -40.39538,30.81137 -7.36621,2.53462 z"
         style="display:inline;fill:#ffffff;fill-opacity:1;fill-rule:evenodd;stroke:none;stroke-width:1px;stroke-linecap:butt;stroke-linejoin:miter;stroke-opacity:1" />
      <path
         inkscape:connector-curvature="0"
         id="path5597"
         d="m -221.74539,314.57869 -0.056,-7.449 3.69651,-3.64048 166.167405,-61.59978 7.1682,0.0396 3.6039,3.76231 10.82572,29.094 0.056,7.22498 -3.89252,3.92052 -165.600425,61.52119 -7.47513,0.0198 -3.71282,-3.57915 z"
         style="display:inline;fill:#ffffff;fill-opacity:1;fill-rule:evenodd;stroke:none;stroke-width:1px;stroke-linecap:butt;stroke-linejoin:miter;stroke-opacity:1" />
      <path
         id="path5568"
         d="m -159.35637,152.37881 a 52.676655,52.676655 0 0 0 -52.67675,52.67676 52.676655,52.676655 0 0 0 50.63949,52.60479 l 10.85957,29.29081 -63.98636,23.70687 10.92147,29.48795 63.97068,-23.77854 74.862455,201.9242 38.34051,-14.21443 -15.77032,-42.53714 -4.10619,6.4991 -16.17022,7.90575 0.0398,-3.64358 1.18596,-2.0944 c 0.27878,-0.49234 7.30585,-3.57928 12.19787,-15.78012 0.86847,-2.16595 1.15389,-4.46985 1.66259,-6.88612 l -53.913955,-145.42046 63.707145,-23.68055 -10.90746,-29.29193 -63.690365,23.59709 -10.94722,-29.52745 a 52.676655,52.676655 0 0 0 16.4578,-38.16184 52.676655,52.676655 0 0 0 -52.67648,-52.67676 z m -0.0459,29.79824 a 23.019093,23.019093 0 0 1 23.01909,23.0191 23.019093,23.019093 0 0 1 -23.01909,23.01908 23.019093,23.019093 0 0 1 -23.0191,-23.01908 23.019093,23.019093 0 0 1 23.0191,-23.0191 z"
         style="display:inline;opacity:1;fill:#3651a2;fill-opacity:1;stroke:none;stroke-width:220;stroke-linecap:butt;stroke-linejoin:bevel;stroke-miterlimit:4;stroke-dasharray:none;stroke-opacity:1"
         inkscape:connector-curvature="0" />
      <path
         sodipodi:nodetypes="ccccccssccccccsccccccssscscccscsccscsc"
         inkscape:connector-curvature="0"
         id="path5743"
         d="m 3.538035,403.96478 -23.13109,7.22497 -10.86543,-0.056 -5.37672,-5.43272 -0.0561,-10.69744 c 6.3441,-16.15085 22.55112,-35.06335 50.01485,-57.12767 -1.73045,-24.95212 -4.93698,-49.32529 -15.13827,-73.44259 -12.36245,-29.22648 -32.68804,-58.28715 -43.39804,-90.24791 -3.61803,-10.79711 -7.99655,-29.18407 1.3525,-41.24104 l 6.77696,-6.55288 3.64054,-2.29631 17.81947,-0.35011 43.34068,26.36561 c 98.972275,-3.45887 131.238785,60.76902 149.804675,138.89897 5.10014,7.80627 11.35148,15.14327 16.27211,22.98728 21.24709,33.87056 37.47906,70.153 43.89542,103.72942 l 0.0561,11.20151 -4.30468,4.7159 -11.14544,0.11201 c -4.40089,-3.22011 -9.36812,-5.61617 -15.40826,-6.45194 l -23.80153,3.20787 c -19.1549,81.91409 -56.49874,121.37261 -91.531185,145.59604 -34.10318,23.58092 -71.45334,32.73803 -109.5333,32.3709 -80.13324,-0.77257 -163.113775,-45.64105 -223.173085,-100.50699 -19.59384,-17.89954 -38.18495,-34.79374 -49.44957,-51.99057 -24.80952,-8.23546 -51.3324,-8.23386 -77.94132,-10.17141 -14.93253,-1.08732 -29.10807,-4.32011 -43.8072,-7.45653 l -5.63608,-5.8805 -0.0384,-10.25279 c 9.645,-19.49581 28.24252,-31.91991 47.33457,-35.6038 4.43378,-0.85552 9.12076,-0.34828 13.80361,-0.75797 1.26912,-2.86726 2.54346,-5.85333 4.44225,-8.72059 5.0684,-7.65353 13.13054,-15.18825 26.44969,-22.84178 l 11.04932,-0.0792 c 6.28969,5.78387 11.13294,11.36629 16.516,16.87364 15.6371,15.99819 30.70413,31.8111 30.67872,60.62409 53.7383,36.46678 152.98467,78.28758 222.613935,36.31861 19.74003,-11.89827 42.37919,-32.85661 47.87434,-62.06807 z"
         style="display:inline;fill:#ffffff;fill-opacity:1;fill-rule:evenodd;stroke:none;stroke-width:1px;stroke-linecap:butt;stroke-linejoin:miter;stroke-opacity:1" />
      <path
         sodipodi:nodetypes="cscccsscscsccscscsssssccscccsssccsssc"
         inkscape:connector-curvature="0"
         id="iruka"
         d="m 25.334555,342.27609 c -1.30433,4.00433 -7.72643,9.11916 -13.39235,13.549 -14.65479,11.45808 -30.77234,28.03185 -36.82467,44.2322 13.3869,-3.59504 25.95423,-9.51218 40.97952,-8.46519 2.32791,0.75823 2.79346,2.12046 2.36633,3.7722 -10.94471,50.91999 -39.94618,73.86324 -67.42596,86.90723 -55.723925,26.45079 -120.555035,10.08545 -171.453335,-13.23531 -22.73472,-10.41667 -42.56169,-21.71534 -57.24578,-32.7831 -0.37971,-9.89657 -1.92049,-19.49808 -5.66311,-28.43612 -6.42013,-15.3325 -20.77928,-28.00202 -36.26562,-44.9076 -2.88133,1.6978 -5.50109,3.53255 -7.88428,5.17644 -9.67271,6.67205 -15.44857,13.26383 -19.00049,24.73096 -0.17891,0.36473 -0.52136,1.62209 -3.04414,2.28479 -12.03959,-0.72947 -22.62722,1.94334 -31.50089,6.01033 -11.11068,5.09227 -19.57927,12.81997 -25.36084,23.93506 17.11001,2.52397 33.06452,6.54528 50.31423,8.02153 24.18352,2.06966 49.61494,1.94895 72.95105,10.3742 13.92569,16.56801 29.41341,35.44499 47.83232,52.41284 27.46794,25.30399 60.85407,48.5469 90.907,64.77891 38.80789,20.96068 80.730985,33.9414 120.587265,35.18615 44.997,1.40532 87.27941,-11.69241 119.11749,-38.73209 23.198625,-19.70216 46.377175,-49.34333 63.406475,-94.77867 4.86687,-12.98503 10.39858,-27.1503 14.67645,-42.56971 0.35658,-0.57581 0.79604,-1.09987 1.74263,-1.30691 10.72606,-0.7651 22.34996,-3.2759 32.27639,-3.24369 8.07441,0.0262 14.91847,1.84223 20.10995,6.78167 -7.82492,-43.28252 -29.35045,-87.26319 -60.15205,-127.58514 -20.24816,-66.82056 -37.19387,-136.31895 -143.407235,-133.43794 -4.15871,0.0555 -3.88113,-0.51112 -9.98694,-3.17155 -4.87131,-2.12247 -8.71946,-6.08939 -13.20307996,-10.16989 -3.94952004,-3.59433 -8.55185004,-7.2768 -12.54038004,-9.86445 -5.2894,-3.43153 -11.58003,-3.86733 -15.9052,-2.86865 -10.0334,6.31868 -9.16165,13.75013 -9.18861,21.08987 1.74278,9.74895 8.68334,30.04107 14.28947,39.80738 1.92443,3.35248 3.25585,7.11363 5.30101,10.7991 10.61079,19.12165 23.01539,42.01252 30.65062,64.04938 10.51286,30.34145 14.20688,58.63927 11.93676,71.65677 z"
         style="display:inline;fill:#3651a2;fill-opacity:1;fill-rule:evenodd;stroke:none;stroke-width:1px;stroke-linecap:butt;stroke-linejoin:miter;stroke-opacity:1" />
      <path
         id="path5642-1"
         d="m -382.71971,348.14388 -3.62368,3.78218 0.0356,7.57334 34.77564,153.05764 3.78219,3.70294 7.6831,0.0594 3.5212,-3.86621 15.43427,-29.6501 5.19386,-3.5702 -8.93768,-12.59385 9.01721,-13.88987 16.86052,14.8392 6.34565,-4.36187 14.88259,0.81799 15.19009,0.59507 3.66849,-3.64049 0.0302,-7.52993 -116.2159,-105.30534 -7.64335,-0.0199 z"
         style="display:inline;fill:#ffffff;fill-opacity:1;fill-rule:evenodd;stroke:none;stroke-width:1px;stroke-linecap:butt;stroke-linejoin:miter;stroke-opacity:1"
         inkscape:connector-curvature="0" />
      <path
         inkscape:connector-curvature="0"
         id="path5614"
         d="m -379.17841,354.39131 34.69246,152.98762 21.62842,-41.82614 8.70778,-12.54933 47.16758,2.73261 -112.19624,-101.34476 z"
         style="display:inline;fill:#3651a2;fill-opacity:1;fill-rule:evenodd;stroke:none;stroke-width:1px;stroke-linecap:butt;stroke-linejoin:miter;stroke-opacity:1" />
      <g
         transform="translate(-482.64076,-20.34015)"
         id="text4619"
         style="font-style:normal;font-variant:normal;font-weight:bold;font-stretch:normal;font-size:34.48300171px;line-height:125%;font-family:sans-serif;-inkscape-font-specification:'sans-serif Bold';letter-spacing:0px;word-spacing:0px;display:inline;fill:#3651a2;fill-opacity:1;stroke:none;stroke-width:60;stroke-linecap:butt;stroke-linejoin:miter;stroke-miterlimit:4;stroke-dasharray:none;stroke-opacity:1">
        <path
           id="path5965"
           d="m 307.92724,673.65894 6.4824,0 0,9.58048 9.56365,0 0,-9.58048 6.4824,0 0,25.13824 -6.4824,0 0,-10.65808 -9.56365,0 0,10.65808 -6.4824,0 0,-25.13824 z"
           inkscape:connector-curvature="0" />
        <path
           id="path5967"
           d="m 345.0032,690.31113 q -1.88578,0 -2.84552,0.63982 -0.94289,0.63982 -0.94289,1.88579 0,1.14494 0.75768,1.8016 0.77452,0.63982 2.13835,0.63982 1.70058,0 2.86236,-1.21229 1.16178,-1.22913 1.16178,-3.06441 l 0,-0.69033 -3.13176,0 z m 9.21006,-2.27305 0,10.7591 -6.0783,0 0,-2.79501 q -1.21229,1.71742 -2.72766,2.50877 -1.51536,0.77452 -3.68739,0.77452 -2.92971,0 -4.76498,-1.70057 -1.81844,-1.71742 -1.81844,-4.44508 0,-3.31697 2.27305,-4.86601 2.28988,-1.54904 7.17273,-1.54904 l 3.55269,0 0,-0.47145 q 0,-1.43117 -1.1281,-2.08783 -1.12811,-0.6735 -3.51902,-0.6735 -1.9363,0 -3.60321,0.38726 -1.6669,0.38726 -3.09808,1.16178 l 0,-4.59661 q 1.9363,-0.47145 3.88944,-0.70717 1.95314,-0.25256 3.90628,-0.25256 5.10173,0 7.35794,2.02049 2.27305,2.00365 2.27305,6.53291 z"
           inkscape:connector-curvature="0" />
        <path
           id="path5969"
           d="m 373.86251,685.0747 q -0.79136,-0.37043 -1.58271,-0.5388 -0.77452,-0.18521 -1.56588,-0.18521 -2.32356,0 -3.58637,1.49853 -1.24597,1.48169 -1.24597,4.25986 l 0,8.6881 -6.02779,0 0,-18.85789 6.02779,0 0,3.09808 q 1.16178,-1.85211 2.66031,-2.69398 1.51537,-0.85871 3.62004,-0.85871 0.30308,0 0.65666,0.0337 0.35359,0.0168 1.02709,0.10103 l 0.0168,5.45532 z"
           inkscape:connector-curvature="0" />
        <path
           id="path5971"
           d="m 395.71746,689.31772 0,1.71742 -14.09291,0 q 0.21889,2.12151 1.5322,3.18227 1.31332,1.06075 3.67056,1.06075 1.90263,0 3.88944,-0.55563 2.00365,-0.57247 4.10833,-1.71742 l 0,4.64713 q -2.13835,0.80819 -4.27671,1.21229 -2.13835,0.42093 -4.2767,0.42093 -5.11857,0 -7.96409,-2.59296 -2.82868,-2.60979 -2.82868,-7.30743 0,-4.61345 2.77817,-7.25692 2.79501,-2.64347 7.67786,-2.64347 4.44507,0 7.10538,2.67715 2.67715,2.67714 2.67715,7.15589 z m -6.19617,-2.00365 q 0,-1.71741 -1.01024,-2.76133 -0.99341,-1.06076 -2.6098,-1.06076 -1.75109,0 -2.84552,0.99341 -1.09443,0.97657 -1.36383,2.82868 l 7.82939,0 z"
           inkscape:connector-curvature="0" />
        <path
           id="path5973"
           d="m 400.26356,672.59818 6.02779,0 0,14.26128 6.93701,-6.92017 7.00436,0 -9.21006,8.65442 9.93407,10.20347 -7.30744,0 -7.35794,-7.86307 0,7.86307 -6.02779,0 0,-26.199 z"
           inkscape:connector-curvature="0" />
        <path
           id="path5975"
           d="m 431.68215,690.31113 q -1.88579,0 -2.84552,0.63982 -0.9429,0.63982 -0.9429,1.88579 0,1.14494 0.75769,1.8016 0.77452,0.63982 2.13835,0.63982 1.70058,0 2.86236,-1.21229 1.16178,-1.22913 1.16178,-3.06441 l 0,-0.69033 -3.13176,0 z m 9.21006,-2.27305 0,10.7591 -6.0783,0 0,-2.79501 q -1.2123,1.71742 -2.72766,2.50877 -1.51537,0.77452 -3.68739,0.77452 -2.92971,0 -4.76499,-1.70057 -1.81844,-1.71742 -1.81844,-4.44508 0,-3.31697 2.27305,-4.86601 2.28989,-1.54904 7.17273,-1.54904 l 3.5527,0 0,-0.47145 q 0,-1.43117 -1.12811,-2.08783 -1.12811,-0.6735 -3.51902,-0.6735 -1.9363,0 -3.6032,0.38726 -1.6669,0.38726 -3.09808,1.16178 l 0,-4.59661 q 1.9363,-0.47145 3.88944,-0.70717 1.95314,-0.25256 3.90627,-0.25256 5.10174,0 7.35795,2.02049 2.27305,2.00365 2.27305,6.53291 z"
           inkscape:connector-curvature="0" />
        <path
           id="path5977"
           d="m 445.60668,679.93929 16.45014,0 0,4.20935 -9.93407,10.33816 9.93407,0 0,4.31038 -16.87108,0 0,-4.20935 9.93407,-10.33817 -9.51313,0 0,-4.31037 z"
           inkscape:connector-curvature="0" />
        <path
           id="path5979"
           d="m 485.42714,689.31772 0,1.71742 -14.0929,0 q 0.21888,2.12151 1.5322,3.18227 1.31332,1.06075 3.67056,1.06075 1.90262,0 3.88944,-0.55563 2.00365,-0.57247 4.10832,-1.71742 l 0,4.64713 q -2.13835,0.80819 -4.2767,1.21229 -2.13835,0.42093 -4.2767,0.42093 -5.11857,0 -7.96409,-2.59296 -2.82868,-2.60979 -2.82868,-7.30743 0,-4.61345 2.77817,-7.25692 2.79501,-2.64347 7.67785,-2.64347 4.44508,0 7.10539,2.67715 2.67714,2.67714 2.67714,7.15589 z m -6.19616,-2.00365 q 0,-1.71741 -1.01024,-2.76133 -0.99341,-1.06076 -2.6098,-1.06076 -1.75109,0 -2.84552,0.99341 -1.09443,0.97657 -1.36383,2.82868 l 7.82939,0 z"
           inkscape:connector-curvature="0" />
      </g>
    </g>
  </g>
</svg>
