<?xml version="1.0" encoding="UTF-8" standalone="no"?>
<!-- Created with Inkscape (http://www.inkscape.org/) -->

<svg
   xmlns:dc="http://purl.org/dc/elements/1.1/"
   xmlns:cc="http://creativecommons.org/ns#"
   xmlns:rdf="http://www.w3.org/1999/02/22-rdf-syntax-ns#"
   xmlns:svg="http://www.w3.org/2000/svg"
   xmlns="http://www.w3.org/2000/svg"
   xmlns:sodipodi="http://sodipodi.sourceforge.net/DTD/sodipodi-0.dtd"
   xmlns:inkscape="http://www.inkscape.org/namespaces/inkscape"
   width="210mm"
   height="297mm"
   viewBox="0 0 744.09448819 1052.3622047"
   id="svg4712"
   version="1.1"
   inkscape:version="0.91 r13725"
   sodipodi:docname="smallkey_gradation.svg">
  <defs
     id="defs4714" />
  <sodipodi:namedview
     id="base"
     pagecolor="#ffffff"
     bordercolor="#666666"
     borderopacity="1.0"
     inkscape:pageopacity="0.0"
     inkscape:pageshadow="2"
     inkscape:zoom="0.49497475"
     inkscape:cx="-234.57681"
     inkscape:cy="579.34478"
     inkscape:document-units="px"
     inkscape:current-layer="layer1"
     showgrid="false"
     inkscape:window-width="1600"
     inkscape:window-height="837"
     inkscape:window-x="-8"
     inkscape:window-y="-8"
     inkscape:window-maximized="1" />
  <metadata
     id="metadata4717">
    <rdf:RDF>
      <cc:Work
         rdf:about="">
        <dc:format>image/svg+xml</dc:format>
        <dc:type
           rdf:resource="http://purl.org/dc/dcmitype/StillImage" />
        <dc:title />
      </cc:Work>
    </rdf:RDF>
  </metadata>
  <g
     inkscape:label="Layer 1"
     inkscape:groupmode="layer"
     id="layer1">
    <path
       inkscape:connector-curvature="0"
       style="display:inline;opacity:1;fill:#000000;fill-opacity:0;stroke:none;stroke-width:1;stroke-linejoin:miter;stroke-miterlimit:4;stroke-dasharray:none;stroke-opacity:1"
       d="m 378.32351,30.311712 a 126.95312,126.95312 0 0 0 -126.9531,126.953198 126.95312,126.95312 0 0 0 99.2187,123.7226 l 0,427.7109 53.2363,0 0,-0.125 179.0899,0 0,-44.621 -122.8575,0 0,-39.9004 -56.2324,0 0,-62.5664 108.7813,0 0,-24.7168 -62.5489,0 0,-37.5645 62.5489,0 0,-21.2832 -108.7813,0 0,-196.3086 A 126.95312,126.95312 0 0 0 505.27661,157.26491 126.95312,126.95312 0 0 0 378.32351,30.311712 Z m -0.2969,57.8125 a 69.53125,69.53125 0 0 1 69.5312,69.531298 69.53125,69.53125 0 0 1 -69.5312,69.5312 69.53125,69.53125 0 0 1 -69.5312,-69.5312 69.53125,69.53125 0 0 1 69.5312,-69.531298 z"
       id="smallkey" />
  </g>
</svg>
